<svg version="1.1" xmlns="http://www.w3.org/2000/svg" xmlns:xlink="http://www.w3.org/1999/xlink" x="0px" y="0px" width="326.5px" height="90px" viewBox="0 0 326.5 90" enable-background="new 0 0 326.5 90" xml:space="preserve">
	<path fill="#5cce0e" d="M37.475,9.946c8.601,6.284,7.532,19.744,0,27.277s-20.848,9.98-27.277,0 C0.142,21.612,3.842,3.604,3.842,3.604S24.697,0.611,37.475,9.946z"/>
	<path fill="#e80031" d="M79.413,37.605c-6.284,8.601-19.744,7.532-27.277,0s-9.98-20.848,0-27.277 c15.61-10.056,33.618-6.355,33.618-6.355S88.747,24.827,79.413,37.605z"/>
	<path fill="#ffb00f" d="M51.754,79.543c-8.601-6.284-7.532-19.744,0-27.277 s20.848-9.98,27.277,0c10.056,15.61,6.355,33.618,6.355,33.618S64.531,88.877,51.754,79.543z"/>
	<path fill="#164499" d="M9.816,51.884c6.284-8.601,19.744-7.532,27.277,0s9.98,20.848,0,27.277 c-15.61,10.056-33.618,6.355-33.618,6.355S0.481,64.661,9.816,51.884z"/>
	<path fill="#6666ff" d="M117.032,62.936c0,5.28-4.224,9.503-9.503,9.503h-1.056c-5.28,0-9.503-4.224-9.503-9.503v-9.767h3.3v9.767 c0,3.432,2.771,6.204,6.204,6.204h1.056c3.432,0,6.204-2.772,6.204-6.204v-5.082c0-7.919-4.554-11.285-9.833-14.387 c-4.553-2.772-6.929-6.138-6.929-11.747v-3.629c0-5.28,4.224-9.503,9.503-9.503h1.056c5.28,0,9.503,4.224,9.503,9.503h-3.3 c0-3.432-2.772-6.204-6.204-6.204h-1.056c-3.432,0-6.204,2.771-6.204,6.204v3.629c0,4.95,3.828,7.919,8.381,10.691 c5.016,3.036,8.381,6.864,8.381,15.443V62.936z"/>
	<path fill="#6666ff" d="M124.624,18.984h10.559c5.279,0,9.503,3.828,9.503,9.107v11.615c0,5.28-4.224,9.503-9.503,9.503h-7.259 v22.57h-3.3V18.984z M127.923,22.284V45.91h7.259c3.432,0,6.204-2.772,6.204-6.204V28.091c0-3.366-2.772-5.808-6.204-5.808 H127.923z"/>
	<path fill="#6666ff" d="M180.259,62.936c0,5.28-4.224,9.503-9.503,9.503H169.7c-5.28,0-9.503-4.224-9.503-9.503v-9.767h3.3v9.767 c0,3.432,2.771,6.204,6.204,6.204h1.056c3.432,0,6.204-2.772,6.204-6.204v-5.082c0-7.919-4.554-11.285-9.833-14.387 c-4.553-2.772-6.929-6.138-6.929-11.747v-3.629c0-5.28,4.224-9.503,9.503-9.503h1.056c5.28,0,9.503,4.224,9.503,9.503h-3.3 c0-3.432-2.772-6.204-6.204-6.204H169.7c-3.432,0-6.204,2.771-6.204,6.204v3.629c0,4.95,3.828,7.919,8.381,10.691 c5.016,3.036,8.381,6.864,8.381,15.443V62.936z"/>
	<path fill="#6666ff" d="M191.15,22.284v18.742h11.285v3.3H191.15v24.154h13.067v3.3H187.85V18.984h16.367v3.3H191.15z"/>
	<path fill="#6666ff" d="M227.184,71.779V52.113c0-3.695-3.696-5.478-5.478-6.269h-8.249v25.936h-3.3V18.984h11.945 c4.356,0,7.919,3.563,7.919,7.919v9.503c0,3.432-2.112,6.468-5.082,7.788c3.234,1.188,5.543,4.29,5.543,7.919v19.667H227.184z M221.772,42.544c1.782-0.792,4.884-2.574,4.884-6.005v-9.635c0-2.376-1.98-4.686-4.554-4.686h-8.645v20.326H221.772z"/>
	<path fill="#6666ff" d="M257.148,18.984h3.3l-9.305,51.211c-0.198,1.056-1.452,2.244-2.838,2.244h-2.244 c-1.386,0-2.64-1.122-2.838-2.244l-9.437-51.211h3.299l9.173,49.298c0,0,0.132,0.858,0.66,0.858h0.528 c0.528,0,0.594-0.594,0.66-0.858L257.148,18.984z"/>
	<path fill="#6666ff" d="M269.359,71.779h-3.3V18.984h3.3V71.779z"/>
	<path fill="#6666ff" d="M294.966,52.509h3.3v10.427c0,5.28-4.224,9.503-9.503,9.503h-1.32c-5.279,0-9.503-4.224-9.503-9.503 V28.091c0-5.28,4.224-9.503,9.503-9.503h1.32c5.279,0,9.503,4.224,9.503,9.503v8.315h-3.3v-8.315c0-3.432-2.771-6.204-6.203-6.204 h-1.32c-3.432,0-6.203,2.771-6.203,6.204v34.845c0,3.432,2.771,6.204,6.203,6.204h1.32c3.432,0,6.071-2.772,6.071-6.204V52.509 H294.966z"/>
	<path fill="#6666ff" d="M309.486,22.284v18.742h11.285v3.3h-11.285v24.154h13.067v3.3h-16.367V18.984h16.367v3.3H309.486z"/>
</svg>