<svg xmlns="http://www.w3.org/2000/svg" width="326.5" height="90" viewBox="0 0 326.5 90"><path fill="#5cce0e" d="M37.475 9.946c8.601 6.284 7.532 19.744 0 27.277s-20.848 9.98-27.277 0C.142 21.612 3.842 3.604 3.842 3.604S24.697.611 37.475 9.946z"/><path fill="#e80031" d="M79.413 37.605c-6.284 8.601-19.744 7.532-27.277 0s-9.98-20.848 0-27.277C67.746.272 85.754 3.973 85.754 3.973s2.993 20.854-6.341 33.632z"/><path fill="#ffb00f" d="M51.754 79.543c-8.601-6.284-7.532-19.744 0-27.277s20.848-9.98 27.277 0c10.056 15.61 6.355 33.618 6.355 33.618s-20.855 2.993-33.632-6.341z"/><path fill="#164499" d="M9.816 51.884c6.284-8.601 19.744-7.532 27.277 0s9.98 20.848 0 27.277c-15.61 10.056-33.618 6.355-33.618 6.355S.481 64.661 9.816 51.884z"/><path fill="#66f" d="M117.032 62.936a9.463 9.463 0 0 1-9.503 9.503h-1.056a9.463 9.463 0 0 1-9.503-9.503v-9.767h3.3v9.767a6.196 6.196 0 0 0 6.204 6.204h1.056a6.197 6.197 0 0 0 6.204-6.204v-5.082c0-7.919-4.554-11.285-9.833-14.387-4.553-2.772-6.929-6.138-6.929-11.747v-3.629a9.463 9.463 0 0 1 9.503-9.503h1.056a9.463 9.463 0 0 1 9.503 9.503h-3.3a6.197 6.197 0 0 0-6.204-6.204h-1.056a6.196 6.196 0 0 0-6.204 6.204v3.629c0 4.95 3.828 7.919 8.381 10.691 5.016 3.036 8.381 6.864 8.381 15.443v5.082zm7.592-43.952h10.559c5.279 0 9.503 3.828 9.503 9.107v11.615a9.463 9.463 0 0 1-9.503 9.503h-7.259v22.57h-3.3V18.984zm3.299 3.3V45.91h7.259a6.197 6.197 0 0 0 6.204-6.204V28.091c0-3.366-2.772-5.808-6.204-5.808h-7.259zm52.336 40.652a9.463 9.463 0 0 1-9.503 9.503H169.7a9.463 9.463 0 0 1-9.503-9.503v-9.767h3.3v9.767a6.196 6.196 0 0 0 6.204 6.204h1.056a6.197 6.197 0 0 0 6.204-6.204v-5.082c0-7.919-4.554-11.285-9.833-14.387-4.553-2.772-6.929-6.138-6.929-11.747v-3.629a9.463 9.463 0 0 1 9.503-9.503h1.056a9.463 9.463 0 0 1 9.503 9.503h-3.3a6.197 6.197 0 0 0-6.204-6.204H169.7a6.196 6.196 0 0 0-6.204 6.204v3.629c0 4.95 3.828 7.919 8.381 10.691 5.016 3.036 8.381 6.864 8.381 15.443v5.082zm10.891-40.652v18.742h11.285v3.3H191.15V68.48h13.067v3.3H187.85V18.984h16.367v3.3H191.15zm36.034 49.495V52.113c0-3.695-3.696-5.478-5.478-6.269h-8.249V71.78h-3.3V18.984h11.945c4.356 0 7.919 3.563 7.919 7.919v9.503c0 3.432-2.112 6.468-5.082 7.788 3.234 1.188 5.543 4.29 5.543 7.919V71.78h-3.298zm-5.412-29.235c1.782-.792 4.884-2.574 4.884-6.005v-9.635c0-2.376-1.98-4.686-4.554-4.686h-8.645v20.326h8.315zm35.376-23.56h3.3l-9.305 51.211c-.198 1.056-1.452 2.244-2.838 2.244h-2.244c-1.386 0-2.64-1.122-2.838-2.244l-9.437-51.211h3.299l9.173 49.298s.132.858.66.858h.528c.528 0 .594-.594.66-.858l9.042-49.298zm12.211 52.795h-3.3V18.984h3.3v52.795zm25.607-19.27h3.3v10.427a9.463 9.463 0 0 1-9.503 9.503h-1.32a9.464 9.464 0 0 1-9.503-9.503V28.091a9.463 9.463 0 0 1 9.503-9.503h1.32a9.464 9.464 0 0 1 9.503 9.503v8.315h-3.3v-8.315a6.196 6.196 0 0 0-6.203-6.204h-1.32a6.195 6.195 0 0 0-6.203 6.204v34.845a6.196 6.196 0 0 0 6.203 6.204h1.32c3.432 0 6.071-2.772 6.071-6.204V52.509h.132zm14.52-30.225v18.742h11.285v3.3h-11.285V68.48h13.067v3.3h-16.367V18.984h16.367v3.3h-13.067z"/></svg>